<svg width="47" height="50" viewBox="0 0 47 50" fill="none" xmlns="http://www.w3.org/2000/svg">
<path d="M28.4914 29.8392C27.6863 32.6897 24.0973 33.5998 22.0312 31.4773L12.0508 21.2246C7.41665 16.464 9.67382 8.47195 16.1137 6.83896L21.9534 5.35816C28.3933 3.72517 34.186 9.67594 32.3803 16.0695L28.4914 29.8392Z" stroke="black"/>
<path d="M25.9406 23.6818C25.4091 25.5637 23.0396 26.1646 21.6756 24.7633L15.8443 18.7729C12.9798 15.8302 14.375 10.8901 18.3557 9.88072L21.7677 9.01552C25.7484 8.00612 29.329 11.6845 28.2128 15.6365L25.9406 23.6818Z" fill="#FA8908"/>
<rect x="22.9923" y="35.5957" width="6.82609" height="9.43478" rx="2.54348" transform="rotate(-14.2288 22.9923 35.5957)" stroke="black"/>
</svg>
