<svg width="56" height="56" viewBox="0 0 56 56" fill="none" xmlns="http://www.w3.org/2000/svg">
<path d="M21.386 26.0784C20.6863 23.2002 23.3647 20.6438 26.2072 21.477L39.9378 25.5015C46.3133 27.3702 48.275 35.4398 43.469 40.0268L39.1108 44.1863C34.3047 48.7733 26.3354 46.4374 24.766 39.9817L21.386 26.0784Z" stroke="black"/>
<path d="M26.6335 30.1876C26.1716 28.2874 27.9399 26.5997 29.8165 27.1497L37.839 29.5012C41.7798 30.6563 42.9925 35.6443 40.0217 38.4796L37.4753 40.9099C34.5046 43.7453 29.5785 42.3014 28.6084 38.311L26.6335 30.1876Z" fill="#007AFF"/>
<rect x="23.3463" y="18.3624" width="6.82609" height="9.43478" rx="2.54348" transform="rotate(136.336 23.3463 18.3624)" stroke="black"/>
</svg>
