<svg width="20" height="20" viewBox="0 0 20 20" fill="none" xmlns="http://www.w3.org/2000/svg">
<path d="M18.1943 2.48096H15.2413C15.1822 2.48096 15.1254 2.50445 15.0836 2.54627C15.0418 2.58809 15.0183 2.64481 15.0183 2.70396C15.0183 2.74196 15.0303 2.77596 15.0468 2.80696V4.50596C15.0469 4.56822 15.0347 4.62989 15.0109 4.68743C14.9871 4.74497 14.9522 4.79724 14.9081 4.84127C14.8641 4.8853 14.8118 4.92021 14.7543 4.94401C14.6967 4.96781 14.6351 4.98002 14.5728 4.97996H13.6538C13.596 4.97996 13.5388 4.96858 13.4854 4.94646C13.432 4.92435 13.3835 4.89194 13.3427 4.85108C13.3018 4.81023 13.2694 4.76172 13.2473 4.70834C13.2252 4.65495 13.2138 4.59774 13.2138 4.53996V2.83446C13.2431 2.79716 13.2596 2.75139 13.2608 2.70396C13.2609 2.67465 13.2552 2.64563 13.244 2.61854C13.2328 2.59146 13.2164 2.56685 13.1956 2.54613C13.1749 2.52541 13.1503 2.50898 13.1232 2.4978C13.0961 2.48661 13.0671 2.48089 13.0378 2.48096H7.08531C7.02617 2.48096 6.96944 2.50445 6.92762 2.54627C6.8858 2.58809 6.86231 2.64481 6.86231 2.70396C6.86231 2.73846 6.87181 2.76996 6.88581 2.79946V4.51796C6.88581 4.57869 6.87385 4.63884 6.8506 4.69495C6.82736 4.75106 6.79329 4.80205 6.75035 4.84499C6.7074 4.88794 6.65641 4.92201 6.6003 4.94525C6.54419 4.96849 6.48404 4.98046 6.42331 4.98046H5.60731C5.48345 4.98046 5.36467 4.93126 5.27709 4.84368C5.18951 4.7561 5.14031 4.63731 5.14031 4.51346V2.81196C5.16021 2.77939 5.17108 2.74212 5.17181 2.70396C5.17187 2.67465 5.16615 2.64563 5.15497 2.61854C5.14378 2.59146 5.12736 2.56685 5.10664 2.54613C5.08592 2.52541 5.06131 2.50898 5.03422 2.4978C5.00714 2.48661 4.97811 2.48089 4.94881 2.48096H1.83731C1.70589 2.48109 1.57988 2.53332 1.48691 2.6262C1.39393 2.71908 1.34157 2.84504 1.34131 2.97646V17.7435C1.34131 18.0175 1.56381 18.24 1.83731 18.24H18.1943C18.3258 18.2397 18.4518 18.1873 18.5447 18.0942C18.6376 18.0011 18.6898 17.875 18.6898 17.7435V2.97646C18.6895 2.84512 18.6373 2.71925 18.5444 2.62638C18.4515 2.53351 18.3256 2.48122 18.1943 2.48096ZM18.1943 17.794H1.83731C1.8307 17.794 1.82416 17.7926 1.81806 17.7901C1.81196 17.7876 1.80642 17.7838 1.80178 17.7791C1.79713 17.7744 1.79345 17.7689 1.79097 17.7627C1.78849 17.7566 1.78724 17.7501 1.78731 17.7435V6.60696H18.2438V17.743C18.2439 17.7496 18.2428 17.7561 18.2403 17.7623C18.2379 17.7684 18.2343 17.774 18.2297 17.7788C18.2251 17.7835 18.2196 17.7873 18.2135 17.7899C18.2074 17.7925 18.2009 17.7939 18.1943 17.794Z" fill="#2D77F1"/>
<path d="M6.0731 4.47186C6.1961 4.47186 6.2961 4.37186 6.2961 4.24886V1.24986C6.2961 1.22057 6.29033 1.19157 6.27912 1.16452C6.26792 1.13746 6.25149 1.11288 6.23078 1.09217C6.21008 1.07146 6.18549 1.05504 6.15844 1.04383C6.13138 1.03262 6.10238 1.02686 6.0731 1.02686C6.04381 1.02686 6.01481 1.03262 5.98776 1.04383C5.9607 1.05504 5.93612 1.07146 5.91541 1.09217C5.89471 1.11288 5.87828 1.13746 5.86707 1.16452C5.85587 1.19157 5.8501 1.22057 5.8501 1.24986V4.24936C5.8501 4.37236 5.9501 4.47186 6.0731 4.47186ZM14.1501 4.47186C14.2731 4.47186 14.3731 4.37186 14.3731 4.24886V1.24986C14.3731 1.22057 14.3673 1.19157 14.3561 1.16452C14.3449 1.13746 14.3285 1.11288 14.3078 1.09217C14.2871 1.07146 14.2625 1.05504 14.2354 1.04383C14.2084 1.03262 14.1794 1.02686 14.1501 1.02686C14.1208 1.02686 14.0918 1.03262 14.0648 1.04383C14.0377 1.05504 14.0131 1.07146 13.9924 1.09217C13.9717 1.11288 13.9553 1.13746 13.9441 1.16452C13.9329 1.19157 13.9271 1.22057 13.9271 1.24986V4.24936C13.9271 4.37236 14.0266 4.47186 14.1501 4.47186Z" fill="#2D77F1"/>
<path d="M4.92089 9.98046C5.59965 9.98046 6.14989 9.43022 6.14989 8.75146C6.14989 8.0727 5.59965 7.52246 4.92089 7.52246C4.24214 7.52246 3.69189 8.0727 3.69189 8.75146C3.69189 9.43022 4.24214 9.98046 4.92089 9.98046Z" fill="#2D77F1"/>
<path d="M8.45263 9.98046C9.13139 9.98046 9.68163 9.43022 9.68163 8.75146C9.68163 8.0727 9.13139 7.52246 8.45263 7.52246C7.77387 7.52246 7.22363 8.0727 7.22363 8.75146C7.22363 9.43022 7.77387 9.98046 8.45263 9.98046Z" fill="#2D77F1"/>
<path d="M11.9844 9.98046C12.6631 9.98046 13.2134 9.43022 13.2134 8.75146C13.2134 8.0727 12.6631 7.52246 11.9844 7.52246C11.3056 7.52246 10.7554 8.0727 10.7554 8.75146C10.7554 9.43022 11.3056 9.98046 11.9844 9.98046Z" fill="#2D77F1"/>
<path d="M4.92089 13.4028C5.59965 13.4028 6.14989 12.8526 6.14989 12.1738C6.14989 11.4951 5.59965 10.9448 4.92089 10.9448C4.24214 10.9448 3.69189 11.4951 3.69189 12.1738C3.69189 12.8526 4.24214 13.4028 4.92089 13.4028Z" fill="#2D77F1"/>
<path d="M8.45263 13.4028C9.13139 13.4028 9.68163 12.8526 9.68163 12.1738C9.68163 11.4951 9.13139 10.9448 8.45263 10.9448C7.77387 10.9448 7.22363 11.4951 7.22363 12.1738C7.22363 12.8526 7.77387 13.4028 8.45263 13.4028Z" fill="#2D77F1"/>
<path d="M11.9844 13.4028C12.6631 13.4028 13.2134 12.8526 13.2134 12.1738C13.2134 11.4951 12.6631 10.9448 11.9844 10.9448C11.3056 10.9448 10.7554 11.4951 10.7554 12.1738C10.7554 12.8526 11.3056 13.4028 11.9844 13.4028Z" fill="#2D77F1"/>
<path d="M4.92089 16.8252C5.59965 16.8252 6.14989 16.2749 6.14989 15.5962C6.14989 14.9174 5.59965 14.3672 4.92089 14.3672C4.24214 14.3672 3.69189 14.9174 3.69189 15.5962C3.69189 16.2749 4.24214 16.8252 4.92089 16.8252Z" fill="#2D77F1"/>
<path d="M8.45263 16.8252C9.13139 16.8252 9.68163 16.2749 9.68163 15.5962C9.68163 14.9174 9.13139 14.3672 8.45263 14.3672C7.77387 14.3672 7.22363 14.9174 7.22363 15.5962C7.22363 16.2749 7.77387 16.8252 8.45263 16.8252Z" fill="#2D77F1"/>
<path d="M11.9844 16.8252C12.6631 16.8252 13.2134 16.2749 13.2134 15.5962C13.2134 14.9174 12.6631 14.3672 11.9844 14.3672C11.3056 14.3672 10.7554 14.9174 10.7554 15.5962C10.7554 16.2749 11.3056 16.8252 11.9844 16.8252Z" fill="#2D77F1"/>
<path d="M15.4331 9.98046C16.1119 9.98046 16.6621 9.43022 16.6621 8.75146C16.6621 8.0727 16.1119 7.52246 15.4331 7.52246C14.7543 7.52246 14.2041 8.0727 14.2041 8.75146C14.2041 9.43022 14.7543 9.98046 15.4331 9.98046Z" fill="#2D77F1"/>
<path d="M15.4331 13.4028C16.1119 13.4028 16.6621 12.8526 16.6621 12.1738C16.6621 11.4951 16.1119 10.9448 15.4331 10.9448C14.7543 10.9448 14.2041 11.4951 14.2041 12.1738C14.2041 12.8526 14.7543 13.4028 15.4331 13.4028Z" fill="#2D77F1"/>
<path d="M15.4331 16.8252C16.1119 16.8252 16.6621 16.2749 16.6621 15.5962C16.6621 14.9174 16.1119 14.3672 15.4331 14.3672C14.7543 14.3672 14.2041 14.9174 14.2041 15.5962C14.2041 16.2749 14.7543 16.8252 15.4331 16.8252Z" fill="#2D77F1"/>
</svg>
