<svg width="28" height="28" viewBox="0 0 28 28" fill="none" xmlns="http://www.w3.org/2000/svg">
<path d="M19.3615 14.2744C21.57 14.2744 23.47 12.3024 23.47 9.73437C23.47 7.19737 21.56 5.31787 19.3615 5.31787C17.1635 5.31787 15.253 7.23837 15.253 9.75487C15.253 12.3024 17.153 14.2744 19.3615 14.2744ZM7.539 14.5109C9.4495 14.5109 11.114 12.7849 11.114 10.5559C11.114 8.34787 9.439 6.71437 7.539 6.71437C5.629 6.71437 3.944 8.38887 3.9545 10.5769C3.9545 12.7849 5.6185 14.5109 7.5395 14.5109M1.808 23.7859H9.614C8.546 22.2349 9.8505 19.1124 12.059 17.4074C10.919 16.6474 9.4495 16.0824 7.529 16.0824C2.8965 16.0819 0 19.5019 0 22.3474C0 23.2724 0.5135 23.7859 1.808 23.7859ZM12.901 23.7859H25.812C27.4245 23.7859 28 23.3234 28 22.4194C28 19.7694 24.682 16.1129 19.3515 16.1129C14.031 16.1129 10.713 19.7694 10.713 22.4199C10.713 23.3234 11.288 23.7859 12.901 23.7859Z" fill="#2D77F1"/>
</svg>
